<svg viewBox="0 0 152 152" fill="none" xmlns="http://www.w3.org/2000/svg">
<path d="M31.5377 58.5811C34.2598 59.3919 52.2789 64.689 55.0162 63.6625C57.6003 62.6935 71.6419 43.1288 75.1868 38.1465C75.5864 37.5849 76.4158 37.5824 76.818 38.1422C80.371 43.0874 94.4009 62.447 96.9838 63.4156C99.7211 64.4422 117.74 59.145 120.462 58.3342C120.632 58.2838 120.787 58.4127 120.769 58.5885C120.47 61.4206 118.536 80.2183 119.449 83.4125C120.347 86.5582 133.516 94.5096 135.875 95.9132C136.038 96.01 136.044 96.2376 135.88 96.3322C132.77 98.1278 110.275 111.08 108.093 111.309C105.748 111.556 92.4167 105.261 89.8246 105.384C87.6161 105.49 79.1353 113.122 76.6736 115.378C76.2893 115.731 75.7071 115.734 75.3187 115.386C72.847 113.174 64.3816 105.736 62.1754 105.631C59.5833 105.508 46.2524 111.803 43.9072 111.556C41.7246 111.326 19.2301 98.3747 16.1202 96.5791C15.9563 96.4845 15.9622 96.2568 16.1248 96.1601C18.4841 94.7565 31.6525 86.8051 32.5513 83.6594C33.4639 80.4652 31.53 61.6675 31.2315 58.8354C31.2129 58.6595 31.3683 58.5307 31.5377 58.5811Z" stroke="#F0FAF2" stroke-width="8"/>
</svg>
