<svg width="240" height="161" viewBox="0 0 240 161" fill="none" xmlns="http://www.w3.org/2000/svg">
<path fill-rule="evenodd" clip-rule="evenodd" d="M119.907 16.5579C116.082 21.8813 110.577 29.4616 105.039 36.8068C100.769 42.4713 96.4276 48.0652 92.8001 52.3935C90.9941 54.5484 89.2935 56.4756 87.8241 57.9656C87.0927 58.7073 86.3426 59.4185 85.6098 60.019C84.9991 60.5196 83.9282 61.345 82.5995 61.8434C80.5693 62.605 78.2519 62.529 76.822 62.4383C75.0722 62.3274 73.0568 62.0496 70.9607 61.6882C66.7486 60.9618 61.6908 59.805 56.7547 58.5701C51.7664 57.3221 46.7869 55.9651 42.7426 54.827C43.1424 59.0484 43.6064 64.2632 43.9972 69.5052C44.383 74.6783 44.703 79.9496 44.8153 84.3467C44.8714 86.5408 44.8778 88.5909 44.8061 90.3393C44.7408 91.9302 44.5972 93.7949 44.1598 95.3263C43.5604 97.4248 42.2399 99.1576 41.2371 100.318C40.115 101.616 38.7436 102.918 37.307 104.161C34.424 106.657 30.8144 109.316 27.2586 111.774C24.3796 113.764 21.4499 115.682 18.8305 117.35C23.9141 120.253 30.5134 123.995 37.0424 127.623C42.9404 130.9 48.7363 134.058 53.2909 136.415C55.5759 137.597 57.4859 138.544 58.9123 139.197C59.4183 139.429 59.8286 139.607 60.1496 139.738C60.2497 139.716 60.3658 139.689 60.4992 139.656C61.3666 139.439 62.5364 139.08 63.992 138.582C66.8982 137.589 70.4736 136.209 74.2256 134.757L74.4327 134.677C78.0507 133.277 81.8202 131.819 85.0011 130.723C86.6216 130.164 88.1952 129.662 89.5869 129.301C90.7838 128.991 92.518 128.597 94.1624 128.676C96.1181 128.769 97.8835 129.576 98.913 130.092C100.152 130.714 101.46 131.517 102.737 132.37C105.304 134.085 108.209 136.312 110.967 138.536C114.218 141.158 117.409 143.893 119.832 146.013C122.259 143.838 125.466 141.023 128.733 138.324C131.492 136.046 134.398 133.763 136.968 132.007C138.245 131.133 139.556 130.309 140.799 129.671C141.825 129.144 143.612 128.306 145.603 128.211C147.247 128.132 148.981 128.526 150.178 128.837C151.57 129.197 153.144 129.699 154.764 130.258C157.945 131.354 161.715 132.813 165.333 134.212L165.54 134.292C169.292 135.744 172.867 137.124 175.773 138.117C177.229 138.615 178.399 138.974 179.266 139.191C179.399 139.224 179.516 139.251 179.616 139.274C179.937 139.142 180.347 138.964 180.853 138.732C182.279 138.08 184.189 137.132 186.474 135.95C191.029 133.593 196.825 130.435 202.723 127.158C209.252 123.53 215.851 119.788 220.935 116.885C218.315 115.217 215.386 113.299 212.507 111.309C208.951 108.851 205.341 106.192 202.458 103.697C201.022 102.453 199.65 101.151 198.528 99.8529C197.525 98.6928 196.205 96.96 195.605 94.8615C195.168 93.3301 195.024 91.4654 194.959 89.8745C194.887 88.1261 194.894 86.076 194.95 83.8819C195.062 79.4848 195.382 74.2135 195.768 69.0404C196.159 63.7984 196.623 58.5836 197.023 54.3622C192.978 55.5003 187.999 56.8573 183.01 58.1053C178.074 59.3402 173.017 60.497 168.804 61.2234C166.708 61.5848 164.693 61.8626 162.943 61.9735C161.513 62.0642 159.196 62.1402 157.166 61.3786C155.849 60.8849 154.785 60.0709 154.173 59.5732C153.442 58.9779 152.692 58.2731 151.961 57.5378C150.492 56.0608 148.792 54.1513 146.987 52.0166C143.36 47.729 139.02 42.1892 134.751 36.5797C129.227 29.321 123.733 21.8305 119.907 16.5579ZM178.976 139.514C178.976 139.513 178.988 139.509 179.011 139.503C178.986 139.511 178.975 139.514 178.976 139.514ZM60.7895 139.979C60.7892 139.979 60.7779 139.976 60.7543 139.968C60.7776 139.974 60.7897 139.978 60.7895 139.979ZM114.126 2.98779C116.945 -0.98933 122.796 -0.993815 125.627 2.96173C127.939 6.19236 136.332 17.8661 144.771 28.9542C148.997 34.5078 153.184 39.8457 156.6 43.8854C158.316 45.9144 159.767 47.531 160.889 48.6594C161.204 48.9757 161.469 49.23 161.687 49.4297C161.818 49.4256 161.97 49.4187 162.146 49.4075C163.257 49.337 164.777 49.1408 166.665 48.8152C170.421 48.1675 175.128 47.0981 179.955 45.8905C189.58 43.4823 199.234 40.6392 201.769 39.8838C206.39 38.5068 210.91 42.2554 210.404 47.0556C210.125 49.7014 209.083 59.8071 208.324 69.9767C207.945 75.0696 207.642 80.1067 207.537 84.2034C207.485 86.2562 207.484 87.9993 207.54 89.3582C207.578 90.2853 207.637 90.8537 207.675 91.1491C207.753 91.2555 207.875 91.4113 208.054 91.6187C208.628 92.2832 209.505 93.1432 210.7 94.1771C213.078 96.2363 216.26 98.5962 219.666 100.951C226.452 105.642 233.614 109.959 235.795 111.258C239.908 113.705 240.53 120.138 235.733 122.908C232.798 124.603 220.714 131.566 208.838 138.164C202.907 141.46 196.982 144.69 192.26 147.133C189.907 148.351 187.789 149.405 186.091 150.182C185.247 150.568 184.436 150.918 183.713 151.192C183.168 151.398 182.089 151.795 180.945 151.915C179.174 152.102 177.327 151.684 176.216 151.407C174.847 151.065 173.295 150.577 171.701 150.032C168.509 148.941 164.679 147.46 160.997 146.036L160.94 146.014C157.207 144.57 153.618 143.181 150.66 142.161C149.174 141.649 147.952 141.267 147.021 141.025C146.814 140.972 146.641 140.931 146.499 140.899C145.915 141.203 145.104 141.697 144.074 142.401C141.967 143.842 139.398 145.846 136.751 148.033C131.481 152.385 126.315 157.112 124.687 158.616C122.001 161.097 117.857 161.135 115.129 158.674C113.494 157.199 108.33 152.585 103.063 148.337C100.417 146.204 97.8503 144.248 95.7445 142.841C94.6988 142.143 93.8781 141.656 93.2897 141.358C93.1437 141.391 92.9632 141.434 92.7447 141.49C91.8131 141.732 90.5917 142.114 89.1049 142.626C86.147 143.646 82.5581 145.034 78.8252 146.478L78.7684 146.5C75.0862 147.925 71.2564 149.406 68.0642 150.497C66.4706 151.042 64.918 151.53 63.5493 151.872C62.4383 152.149 60.5909 152.567 58.8203 152.38C57.6766 152.26 56.597 151.863 56.0523 151.657C55.3289 151.383 54.5179 151.033 53.6738 150.647C51.9758 149.87 49.8585 148.815 47.5051 147.598C42.7832 145.155 36.8586 141.925 30.927 138.629C19.0508 132.03 6.96686 125.068 4.03209 123.373C-0.764838 120.603 -0.142986 114.17 3.96979 111.723C6.15163 110.424 13.3132 106.107 20.0987 101.416C23.5057 99.061 26.687 96.7011 29.0657 94.6419C30.2599 93.608 31.137 92.748 31.7115 92.0835C31.8907 91.8761 32.0118 91.7203 32.0899 91.6139C32.1283 91.3186 32.1873 90.7502 32.2254 89.823C32.2811 88.4641 32.2806 86.721 32.2282 84.6682C32.1235 80.5715 31.8206 75.5344 31.4408 70.4415C30.6825 60.2719 29.64 50.1663 29.3612 47.5204C28.8555 42.7203 33.3747 38.9715 37.9963 40.3486C40.5317 41.104 50.1849 43.9471 59.8106 46.3553C64.6376 47.5629 69.3445 48.6323 73.1005 49.28C74.9885 49.6056 76.5079 49.8018 77.6189 49.8723C77.7906 49.8832 77.9398 49.8901 78.0681 49.8942C78.2849 49.6941 78.5477 49.4401 78.8587 49.1247C79.9813 47.9863 81.4329 46.3543 83.1499 44.3056C86.5685 40.2266 90.7568 34.8356 94.985 29.2271C103.427 18.0294 111.82 6.24046 114.126 2.98779ZM77.4483 50.4184C77.4485 50.4175 77.4639 50.406 77.4937 50.3867C77.463 50.4095 77.4481 50.4192 77.4483 50.4184ZM92.7793 141.128C92.7791 141.128 92.7855 141.13 92.7989 141.135C92.7861 141.131 92.7794 141.129 92.7793 141.128ZM147.03 140.652C147.03 140.653 147.021 140.656 147.004 140.661C147.022 140.655 147.03 140.652 147.03 140.652ZM162.301 49.944C162.301 49.9449 162.287 49.9356 162.257 49.9136C162.286 49.9321 162.301 49.9431 162.301 49.944Z" fill="#F0FAF2"/>
</svg>
