<svg width="395" height="268" viewBox="0 0 395 268" fill="none" xmlns="http://www.w3.org/2000/svg">
<path fill-rule="evenodd" clip-rule="evenodd" d="M197.557 38.7473C191.835 46.6195 184.633 56.4183 177.367 66.0132C170.383 75.2353 163.221 84.4276 157.205 91.5785C154.215 95.1327 151.344 98.38 148.821 100.931C147.567 102.199 146.223 103.474 144.866 104.584C143.794 105.46 141.597 107.183 138.742 108.248C134.523 109.822 129.952 109.611 127.642 109.465C124.599 109.274 121.175 108.8 117.717 108.207C110.756 107.013 102.464 105.125 94.4498 103.132C88.6867 101.698 82.9336 100.176 77.7295 98.7559C78.2186 104.149 78.7276 110.119 79.1771 116.114C79.8026 124.455 80.326 133.008 80.5102 140.181C80.6021 143.756 80.6145 147.16 80.4929 150.107C80.3863 152.69 80.1452 156.15 79.2799 159.163C78.0365 163.491 75.3743 166.871 73.6489 168.856C71.6451 171.161 69.2573 173.405 66.8522 175.475C62.019 179.636 56.0383 184.01 50.241 187.994C47.6978 189.743 45.1317 191.455 42.6356 193.088C49.6427 197.047 57.702 201.57 65.6946 205.985C75.2147 211.245 84.5374 216.296 91.8409 220.053C95.5101 221.941 98.5262 223.427 100.739 224.434C100.946 224.528 101.14 224.616 101.323 224.697C102.476 224.378 103.966 223.913 105.802 223.289C110.401 221.726 116.093 219.542 122.18 217.2L122.557 217.055C128.371 214.819 134.526 212.451 139.743 210.663C142.407 209.75 145.07 208.903 147.474 208.283C149.433 207.779 152.782 206.989 156.136 207.147C160.286 207.344 163.861 209.036 165.616 209.917C167.864 211.046 170.172 212.469 172.342 213.916C176.714 216.832 181.598 220.574 186.148 224.232C190.129 227.434 194.037 230.721 197.384 233.595C200.75 230.635 204.691 227.238 208.707 223.931C213.258 220.183 218.146 216.35 222.521 213.362C224.692 211.879 227.006 210.419 229.261 209.26C231.009 208.362 234.633 206.601 238.864 206.401C242.219 206.242 245.567 207.032 247.526 207.536C249.93 208.156 252.593 209.003 255.257 209.916C260.474 211.704 266.629 214.072 272.443 216.309L272.82 216.454C278.907 218.795 284.599 220.979 289.198 222.542C291.034 223.166 292.524 223.632 293.678 223.95C293.86 223.869 294.054 223.781 294.261 223.687C296.474 222.681 299.49 221.194 303.159 219.306C310.463 215.549 319.785 210.498 329.305 205.239C337.298 200.823 345.357 196.301 352.365 192.341C349.868 190.708 347.302 188.996 344.759 187.248C338.962 183.263 332.981 178.889 328.148 174.729C325.743 172.658 323.355 170.414 321.351 168.109C319.626 166.124 316.964 162.745 315.72 158.416C314.855 155.403 314.614 151.944 314.507 149.36C314.386 146.413 314.398 143.01 314.49 139.434C314.674 132.262 315.197 123.708 315.823 115.367C316.273 109.372 316.781 103.402 317.271 98.009C312.066 99.4293 306.313 100.951 300.55 102.385C292.536 104.378 284.244 106.267 277.283 107.46C273.825 108.053 270.401 108.527 267.358 108.719C265.048 108.864 260.477 109.075 256.258 107.501C253.431 106.447 251.249 104.749 250.174 103.877C248.82 102.778 247.478 101.514 246.224 100.257C243.701 97.7277 240.83 94.5098 237.841 90.9883C231.826 83.9036 224.666 74.7992 217.683 65.6659C210.445 56.1984 203.27 46.5305 197.557 38.7473ZM291.622 224.788C291.625 224.785 291.685 224.764 291.793 224.732C291.674 224.774 291.62 224.79 291.622 224.788ZM295.439 224.371C295.49 224.377 295.518 224.381 295.518 224.382C295.519 224.383 295.493 224.38 295.439 224.371ZM99.482 225.129C99.4827 225.128 99.5099 225.124 99.5611 225.118C99.5068 225.127 99.4812 225.13 99.482 225.129ZM103.207 225.479C103.316 225.511 103.376 225.532 103.378 225.534C103.38 225.537 103.326 225.521 103.207 225.479ZM184.903 6.69322C191.061 -1.95082 203.853 -1.99828 210.063 6.63503C213.417 11.2987 226.985 30.0845 240.721 48.0526C247.607 57.0586 254.415 65.7017 259.949 72.22C262.683 75.4408 264.948 77.9554 266.664 79.684C268.141 79.5406 270.049 79.2773 272.382 78.8773C278.298 77.8629 285.786 76.1737 293.55 74.2424C309.013 70.396 324.541 65.8486 328.621 64.6401C338.915 61.5903 349.251 69.8869 348.09 80.8399C347.641 85.0773 345.962 101.263 344.742 117.536C344.13 125.691 343.647 133.702 343.48 140.178C343.397 143.427 343.398 146.119 343.483 148.164C343.504 148.673 343.528 149.093 343.552 149.435C344.311 150.259 345.462 151.368 347.067 152.75C350.737 155.909 355.731 159.599 361.186 163.349C372.03 170.803 383.505 177.681 387.005 179.752C396.301 185.253 397.74 199.822 386.855 206.073C382.107 208.8 362.554 220.001 343.329 230.622C333.732 235.925 324.113 241.139 316.425 245.094C312.599 247.063 309.106 248.794 306.27 250.084C304.863 250.724 303.455 251.33 302.159 251.817C301.273 252.151 299.073 252.974 296.626 253.23C292.943 253.616 289.301 252.756 287.51 252.311C285.128 251.72 282.489 250.891 279.867 250C274.611 248.214 268.336 245.8 262.409 243.52L262.376 243.508C256.298 241.17 250.558 238.962 245.853 237.349C243.95 236.697 242.374 236.197 241.127 235.846C240.504 236.226 239.754 236.71 238.876 237.31C235.556 239.577 231.44 242.778 227.143 246.317C218.604 253.349 210.296 260.928 207.972 263.066C202.079 268.489 193.083 268.522 187.148 263.189C184.813 261.092 176.506 253.693 167.974 246.831C163.68 243.378 159.568 240.255 156.249 238.041C155.344 237.437 154.574 236.953 153.937 236.574C152.68 236.927 151.083 237.432 149.147 238.096C144.442 239.709 138.702 241.917 132.624 244.255L132.591 244.267C126.664 246.547 120.389 248.961 115.133 250.747C112.511 251.638 109.872 252.467 107.49 253.058C105.699 253.503 102.057 254.363 98.3745 253.977C95.9273 253.721 93.7272 252.898 92.8408 252.564C91.5452 252.077 90.1375 251.471 88.7304 250.831C85.8938 249.541 82.4015 247.81 78.5749 245.841C70.8868 241.886 61.2683 236.671 51.671 231.369C32.4463 220.748 12.893 209.547 8.14468 206.82C-2.73976 200.569 -1.3014 186 7.99547 180.499C11.4953 178.428 22.9697 171.55 33.814 164.096C39.269 160.346 44.2628 156.656 47.9328 153.497C49.5379 152.115 50.6893 151.006 51.4476 150.181C51.4719 149.84 51.4966 149.42 51.5175 148.911C51.602 146.866 51.6032 144.174 51.5198 140.925C51.3534 134.449 50.8699 126.438 50.2583 118.283C49.038 102.01 47.3589 85.8242 46.9098 81.5868L61.3022 80.0617L46.9098 81.5868C45.7492 70.6342 56.0848 62.3371 66.3794 65.387L62.2605 79.2897L66.3794 65.387C70.4588 66.5955 85.9874 71.1428 101.45 74.9893C109.214 76.9206 116.702 78.6098 122.618 79.6241C124.937 80.0218 126.837 80.2844 128.311 80.4283C130.025 78.6848 132.286 76.1519 135.014 72.9095C140.55 66.3284 147.361 57.6 154.248 48.5055C167.989 30.3608 181.558 11.39 184.903 6.69322ZM126.342 82.2611C126.343 82.2578 126.392 82.2181 126.486 82.1523C126.388 82.2316 126.341 82.2644 126.342 82.2611ZM130.695 80.5566C130.75 80.5516 130.779 80.5506 130.78 80.5513C130.781 80.552 130.753 80.5545 130.695 80.5566ZM52.2475 149.219C52.2496 149.218 52.2284 149.252 52.1772 149.322C52.2197 149.254 52.2453 149.219 52.2475 149.219ZM264.22 79.8044C264.221 79.8037 264.251 79.8048 264.306 79.8098C264.247 79.8076 264.219 79.8051 264.22 79.8044ZM268.477 81.3827C268.57 81.4468 268.618 81.4854 268.619 81.4888C268.62 81.4923 268.574 81.4602 268.477 81.3827ZM342.823 148.575C342.772 148.505 342.75 148.471 342.753 148.472C342.755 148.472 342.781 148.507 342.823 148.575ZM242.83 234.899C242.974 234.832 243.042 234.808 243.04 234.812C243.038 234.817 242.965 234.85 242.83 234.899ZM152.273 235.675C152.144 235.63 152.076 235.599 152.073 235.595C152.071 235.59 152.135 235.613 152.273 235.675Z" fill="url(#paint0_linear_117_58)"/>
<defs>
<linearGradient id="paint0_linear_117_58" x1="196.917" y1="253" x2="196.917" y2="22.161" gradientUnits="userSpaceOnUse">
<stop offset="0.432292" stop-color="#FFF733"/>
<stop offset="0.432392" stop-color="#0955AD"/>
</linearGradient>
</defs>
</svg>
